<?xml version="1.0" encoding="UTF-8" standalone="no"?>
<svg
   xmlns:dc="http://purl.org/dc/elements/1.1/"
   xmlns:cc="http://creativecommons.org/ns#"
   xmlns:rdf="http://www.w3.org/1999/02/22-rdf-syntax-ns#"
   xmlns:svg="http://www.w3.org/2000/svg"
   xmlns="http://www.w3.org/2000/svg"
   xmlns:sodipodi="http://sodipodi.sourceforge.net/DTD/sodipodi-0.dtd"
   xmlns:inkscape="http://www.inkscape.org/namespaces/inkscape"
   id="svg2"
   version="1.1"
   inkscape:version="1.0.1 (3bc2e813f5, 2020-09-07)"
   xml:space="preserve"
   width="355.91165"
   height="472.95428"
   viewBox="0 0 355.91165 472.95431"
   sodipodi:docname="Git-logo-black.svg"><metadata
     id="metadata8"><rdf:RDF><cc:Work
         rdf:about=""><dc:format>image/svg+xml</dc:format><dc:type
           rdf:resource="http://purl.org/dc/dcmitype/StillImage" /><dc:title></dc:title></cc:Work></rdf:RDF></metadata><defs
     id="defs6" /><sodipodi:namedview
     pagecolor="#ffffff"
     bordercolor="#666666"
     borderopacity="1"
     objecttolerance="10"
     gridtolerance="10"
     guidetolerance="10"
     inkscape:pageopacity="0"
     inkscape:pageshadow="2"
     inkscape:window-width="2400"
     inkscape:window-height="1271"
     id="namedview4"
     showgrid="false"
     inkscape:zoom="1.9074106"
     inkscape:cx="325.8293"
     inkscape:cy="244.81787"
     inkscape:window-x="-9"
     inkscape:window-y="-8"
     inkscape:window-maximized="1"
     inkscape:current-layer="g12"
     inkscape:document-rotation="0"
     fit-margin-top="0"
     fit-margin-left="0"
     fit-margin-right="0"
     fit-margin-bottom="0" /><g
     id="g10"
     inkscape:groupmode="layer"
     inkscape:label="ink_ext_XXXXXX"
     transform="matrix(1.25,0,0,-1.25,123.81425,304.46992)"><g
       id="g12"
       transform="scale(0.1)"><path
         d="m 44.73,-774.348 c -47.88,0 -83.54,-23.511 -83.54,-80.093 0,-42.633 23.5,-72.227 80.96,-72.227 48.7,0 81.78,28.695 81.78,73.988 0,51.328 -29.6,78.332 -79.2,78.332 z M -51,-1173.867 c -11.33,-13.906 -22.62,-28.68 -22.62,-46.117 0,-34.786 44.36,-45.254 105.3,-45.254 50.48,0 119.24,3.535 119.24,50.468 0,27.895 -33.08,29.622 -74.88,32.243 z m 257.61,396.89 c 15.64,-20.023 32.2,-47.878 32.2,-87.91 0,-96.601 -75.72,-153.164 -185.35,-153.164 -27.88,0 -53.12,3.473 -68.77,7.817 l -28.73,-46.118 85.28,-5.21 c 150.58,-9.594 239.32,-13.954 239.32,-129.661 0,-100.109 -87.88,-156.652 -239.32,-156.652 -157.52,0 -217.57,40.0391 -217.57,108.781 0,39.18 17.41,60.02 47.87,88.782 -28.73,12.144 -38.29,33.89 -38.29,57.398 0,19.16 9.56,36.562 25.25,53.109 15.66,16.52 33.06,33.078 53.95,52.219 -42.64,20.883 -74.85,66.141 -74.85,130.555 0,100.074 66.15,168.804 199.28,168.804 37.43,0 60.07,-3.445 80.09,-8.699 h 169.72 v -73.957 l -80.08,-6.094"
         style="fill:#100f0d;fill-opacity:1;fill-rule:nonzero;stroke:none"
         id="path14"
         inkscape:connector-curvature="0" /><path
         d="m 439.8,-618.832 c -49.62,0 -78.33,28.746 -78.33,78.371 0,49.563 28.71,76.563 78.33,76.563 50.48,0 79.2,-27 79.2,-76.563 0,-49.625 -28.72,-78.371 -79.2,-78.371 z m -112.29,-523.012 v 68.719 l 44.4,6.074 c 12.19,1.766 13.92,4.356 13.92,17.442 v 255.867 c 0,9.555 -2.6,15.672 -11.33,18.262 l -46.99,16.55 9.57,70.469 h 180.17 v -361.148 c 0,-13.95 0.84,-15.676 13.93,-17.442 l 44.39,-6.074 v -68.719 H 327.51"
         style="fill:#100f0d;fill-opacity:1;fill-rule:nonzero;stroke:none"
         id="path16"
         inkscape:connector-curvature="0" /><path
         d="m 910.8328,-1117.0022 c -37.44,-18.254 -92.26,-34.793 -141.89,-34.793 -103.56,0 -142.71,41.734 -142.71,140.121 v 228.00403 c 0,5.211 0,8.707 -6.99,8.707 h -60.91 v 77.453 c 76.61,8.726 107.05,47.027 116.62,141.886 h 82.69 v -123.625 c 0,-6.07 0,-8.699 6.97,-8.699 h 122.7 v -87.015 h -129.67 v -207.989 c 0,-51.35503 12.2,-71.35503 59.17,-71.35503 24.4,0 49.61,6.074 70.5,13.914 l 23.52,-76.609"
         style="fill:#100f0d;fill-opacity:1;fill-rule:nonzero;stroke:none"
         id="path18"
         inkscape:connector-curvature="0" /><path
         d="M 1803.9612,1129.568 569.23497,2381.1717 c -71.04769,72.0867 -187.16518,72.8791 -259.28994,1.7694 L 50.04009,2126.5368 375.26714,1796.8289 c 76.30095,25.1828 163.44019,7.3542 223.67803,-53.7234 60.5508,-61.459 77.0612,-149.5757 50.1911,-225.7777 l 313.4583,-317.7526 c 76.53633,25.7903 164.51773,8.1909 225.07133,-53.3049 84.6605,-85.7985 83.7177,-223.88171 -2.1053,-308.54499 -85.8362,-84.68506 -223.91943,-83.74288 -308.62933,2.1059 -63.6569,64.58186 -78.8662,158.86365 -45.8645,237.61389 l -292.33111,296.3572 -5.3101,-774.56123 c 20.71151,-10.42956 40.23111,-24.29392 57.43051,-41.65411 84.6354,-85.78887 83.6933,-223.84713 -2.1058,-308.60743 -85.82307,-84.62263 -223.96886,-83.68002 -308.5449,2.1053 -84.64693,85.92329 -83.70496,223.98154 2.10572,308.60744 21.20635,20.88161 45.68623,36.62962 71.76421,47.11798 l 5.33414,781.75005 c -25.93265,10.8088 -50.15866,26.7767 -71.11453,48.0961 -64.11676,64.9474 -79.01907,159.8019 -45.36866,238.8507 L -77.66799,2000.569 -935.90738,1154.0116 c -72.11192,-71.1693 -72.90422,-187.28685 -1.76987,-259.3868 L 297.03582,-356.98039 c 71.08519,-72.087 187.16521,-72.8791 259.32745,-1.7695 L 1802.1912,870.16868 c 72.0872,71.14766 72.8797,187.29952 1.77,259.39932"
         style="fill:#100f0d;fill-opacity:1;fill-rule:nonzero;stroke:none;stroke-width:3.12424"
         id="path20"
         inkscape:connector-curvature="0" /></g></g></svg>
