<?xml version="1.0" encoding="UTF-8" standalone="no"?>
<svg
   xmlns:dc="http://purl.org/dc/elements/1.1/"
   xmlns:cc="http://creativecommons.org/ns#"
   xmlns:rdf="http://www.w3.org/1999/02/22-rdf-syntax-ns#"
   xmlns:svg="http://www.w3.org/2000/svg"
   xmlns="http://www.w3.org/2000/svg"
   xmlns:sodipodi="http://sodipodi.sourceforge.net/DTD/sodipodi-0.dtd"
   xmlns:inkscape="http://www.inkscape.org/namespaces/inkscape"
   viewBox="-11.5 -10.23174 29.977785 33.245274"
   version="1.1"
   id="svg1600"
   sodipodi:docname="native.svg"
   width="29.977785"
   height="33.245274"
   inkscape:version="1.0.1 (3bc2e813f5, 2020-09-07)">
  <metadata
     id="metadata1606">
    <rdf:RDF>
      <cc:Work
         rdf:about="">
        <dc:format>image/svg+xml</dc:format>
        <dc:type
           rdf:resource="http://purl.org/dc/dcmitype/StillImage" />
        <dc:title></dc:title>
      </cc:Work>
    </rdf:RDF>
  </metadata>
  <defs
     id="defs1604" />
  <sodipodi:namedview
     pagecolor="#ffffff"
     bordercolor="#666666"
     borderopacity="1"
     objecttolerance="10"
     gridtolerance="10"
     guidetolerance="10"
     inkscape:pageopacity="0"
     inkscape:pageshadow="2"
     inkscape:window-width="1741"
     inkscape:window-height="1135"
     id="namedview1602"
     showgrid="false"
     fit-margin-top="0"
     fit-margin-left="0"
     fit-margin-right="0"
     fit-margin-bottom="0"
     inkscape:zoom="28.680295"
     inkscape:cx="15.862047"
     inkscape:cy="21.583448"
     inkscape:window-x="259"
     inkscape:window-y="29"
     inkscape:window-maximized="0"
     inkscape:current-layer="g2202"
     inkscape:document-rotation="0" />
  <ellipse
     fill="#61dafb"
     id="circle1590"
     cx="3.2766962"
     cy="2.5130458"
     rx="2.6719329"
     ry="2.5699356"
     style="stroke-width:1.27826" />
  <g
     fill="none"
     stroke="#61dafb"
     id="g1598"
     transform="matrix(1.303382,0,0,1.2536271,3.488893,2.6248864)">
    <ellipse
       rx="11"
       ry="4.1999998"
       id="ellipse1592"
       cx="0"
       cy="0" />
    <ellipse
       rx="11"
       ry="4.1999998"
       transform="rotate(60)"
       id="ellipse1594"
       cx="0"
       cy="0" />
    <ellipse
       rx="11"
       ry="4.1999998"
       transform="rotate(120)"
       id="ellipse1596"
       cx="0"
       cy="0" />
    <path
       style="opacity:0.99;fill:#61dafb;fill-opacity:1;stroke:#01ffff;stroke-width:0.0186367;stroke-dasharray:0.0186367, 0.0186367;paint-order:fill markers stroke"
       d="M 8.5919609,26.175682 C 8.4329942,26.137203 8.1556277,26.035831 7.975591,25.950413 7.5339571,25.74088 6.9238899,25.130707 6.6767019,24.651299 5.9888627,23.31727 5.9334718,21.291145 6.5171775,18.816068 c 0.066125,-0.280388 0.1202267,-0.526724 0.1202267,-0.547415 0,-0.02069 -0.1497779,-0.07745 -0.3328398,-0.126133 C 5.7716042,18.000788 4.7361461,17.631954 4.1253712,17.366283 2.2293691,16.541574 0.97786492,15.48423 0.54187684,14.338735 0.106852,13.195771 0.55061381,11.918606 1.7310999,10.9161 2.6898465,10.101902 4.2397961,9.3318818 5.9748874,8.8077712 6.5075819,8.6468626 6.6118381,8.5997084 6.6072218,8.5217696 6.6041813,8.4704398 6.5335123,8.1066983 6.4501796,7.7134543 6.0282902,5.7225815 6.0094598,4.0097456 6.3969233,2.8692005 6.7187191,1.9219546 7.2511616,1.2631763 7.973877,0.91807389 8.4803654,0.67622157 8.771932,0.61287327 9.3785923,0.61287327 c 0.8047897,0 1.6222697,0.2271708 2.5842477,0.71814133 0.923721,0.4714447 2.072482,1.2826827 2.972452,2.0991001 0.338861,0.3074021 0.393518,0.3403185 0.467731,0.2816874 0.04622,-0.036514 0.28259,-0.2401319 0.525271,-0.4524843 1.464854,-1.2817834 2.971998,-2.1661994 4.318557,-2.5341976 0.238405,-0.065153 0.503676,-0.0875921 1.035501,-0.0875921 0.619113,0 0.759228,0.0152854 1.044892,0.11398953 0.811695,0.28046017 1.456735,0.91048517 1.81807,1.77574777 0.261235,0.6255614 0.346545,1.1137017 0.376626,2.1550564 0.03164,1.0951842 -0.03965,1.7993769 -0.310733,3.069735 -0.09424,0.4415955 -0.159127,0.8226536 -0.144206,0.8467965 0.01492,0.024142 0.09899,0.059574 0.18682,0.078737 0.335271,0.073149 1.624213,0.5231072 2.186216,0.7631887 1.253594,0.5355214 2.052924,1.044168 2.785347,1.772432 0.447382,0.444842 0.55402,0.583291 0.746527,0.969226 0.464351,0.930921 0.427717,1.79099 -0.115746,2.717395 -0.237507,0.404863 -1.017687,1.166889 -1.571851,1.535275 -0.903339,0.600504 -2.543434,1.321023 -3.838558,1.686338 l -0.411541,0.116083 0.02742,0.149691 c 0.01508,0.08233 0.09321,0.460341 0.173611,0.840025 0.246888,1.16587 0.317384,1.891144 0.287433,2.957168 -0.01998,0.711048 -0.05064,1.034752 -0.126626,1.336589 -0.361136,1.434615 -1.010183,2.214324 -2.176821,2.61505 -0.405814,0.139392 -1.453056,0.127617 -2.013171,-0.02263 -1.351449,-0.362528 -2.842457,-1.251508 -4.383337,-2.613466 -0.250087,-0.221047 -0.467637,-0.401904 -0.483445,-0.401904 -0.01581,0 -0.266073,0.205798 -0.556144,0.457329 -2.057087,1.783769 -3.925183,2.705684 -5.4583612,2.693729 -0.2440824,-0.0019 -0.5738497,-0.03494 -0.7328159,-0.07342 z m 1.2810898,-1.181173 c 0.8621083,-0.149462 1.9724653,-0.702844 3.0841453,-1.537083 0.677333,-0.508292 1.471123,-1.192861 1.471123,-1.268705 0,-0.03127 -0.09116,-0.144565 -0.202578,-0.25177 -0.31901,-0.306946 -1.373953,-1.545822 -1.865391,-2.190628 -0.428049,-0.561635 -0.45653,-0.588257 -0.656703,-0.613855 -0.115087,-0.01472 -0.597561,-0.07304 -1.072166,-0.129615 -0.474605,-0.05657 -1.2822545,-0.179414 -1.7947774,-0.272986 -0.5125229,-0.09357 -0.9425533,-0.159436 -0.9556238,-0.146366 -0.039522,0.03952 -0.2435159,0.923602 -0.3265532,1.415232 -0.286474,1.696093 -0.2192285,3.126404 0.1888991,4.017872 0.2334996,0.51003 0.7089461,0.900641 1.2180253,1.000689 0.3211962,0.06312 0.4320585,0.06035 0.9115997,-0.02278 z M 22.083509,24.887056 c 1.046077,-0.464486 1.44717,-2.181337 1.074577,-4.599656 -0.12857,-0.834487 -0.341908,-1.725945 -0.412904,-1.725372 -0.03163,2.47e-4 -0.279399,0.04539 -0.550602,0.100304 -0.72599,0.146996 -1.563902,0.27508 -2.560755,0.39144 -0.69941,0.08164 -0.896595,0.120864 -0.943397,0.187653 -0.380499,0.543001 -1.424755,1.810314 -2.048017,2.48548 l -0.441224,0.477968 0.432598,0.379458 c 1.912216,1.677321 3.631768,2.547955 4.845806,2.453501 0.188319,-0.01465 0.437401,-0.07684 0.603918,-0.150776 z m -5.577111,-4.870859 c 0.321451,-0.379684 0.584498,-0.701429 0.584548,-0.714989 4.9e-5,-0.01356 -0.796195,-0.02465 -1.769434,-0.02465 h -1.769525 l 0.154538,0.197239 c 0.282108,0.360055 1.07576,1.277812 1.356936,1.56912 l 0.277086,0.287072 0.290697,-0.311726 c 0.159883,-0.17145 0.553702,-0.622377 0.875154,-1.002061 z m 1.499298,-2.020736 c 0.113297,-0.03581 0.966116,-1.296954 1.594945,-2.358599 0.52801,-0.891434 1.188616,-2.118275 1.188616,-2.207435 0,-0.202286 -1.358831,-2.553922 -2.224241,-3.8493404 L 18.0826,8.8579654 17.401908,8.818356 C 16.515241,8.766761 14.146383,8.766398 13.278696,8.8177248 l -0.681182,0.040294 -0.2557,0.3661691 C 11.49987,10.429874 9.8918371,13.172209 9.8918371,13.402372 c 0,0.370367 2.5196009,4.53315 2.7797769,4.592635 0.05766,0.01318 0.282349,0.03206 0.499311,0.04195 0.631128,0.02877 4.723597,-0.0064 4.834771,-0.0415 z m -7.309883,-0.605 C 10.320237,16.808857 9.8238338,15.983791 9.4753816,15.361996 9.2800609,15.013456 9.1764743,14.871658 9.1511864,14.918209 9.07254,15.062984 8.5411976,16.426737 8.3873083,16.878794 c -0.1134904,0.333383 -0.1447931,0.48398 -0.1051581,0.505908 0.1044254,0.05777 2.2574038,0.421776 2.5577888,0.432442 l 0.134493,0.0048 -0.278619,-0.431459 z m 9.831864,0.331703 c 0.909429,-0.133274 1.756357,-0.292559 1.843016,-0.346622 0.05926,-0.03697 0.04796,-0.108676 -0.07131,-0.452134 -0.166272,-0.478808 -0.53558,-1.428254 -0.704095,-1.81014 l -0.118184,-0.267828 -0.299263,0.53903 c -0.362664,0.653231 -0.702552,1.221636 -1.10369,1.845735 -0.165599,0.257643 -0.317836,0.496178 -0.338304,0.530078 -0.04927,0.0816 -0.01327,0.07987 0.791835,-0.03812 z M 7.3004934,16.217841 c 0.3604738,-0.976705 0.4634431,-1.230697 0.8687517,-2.14293 L 8.4701475,13.397664 8.3229278,13.106023 C 8.0120579,12.490194 7.3179904,10.763185 7.101972,10.067987 7.0535165,9.9120456 6.9861605,9.7844571 6.9522927,9.7844571 c -0.1155151,0 -1.5875671,0.4939679 -2.0683505,0.6940649 -1.0993276,0.457528 -1.9800864,0.987952 -2.5055638,1.50894 -0.9884803,0.980035 -0.9999507,1.87104 -0.036439,2.830541 0.7745367,0.771313 2.0339199,1.439679 3.7530594,1.991782 0.3118831,0.100162 0.6225336,0.200598 0.6903342,0.223193 0.067801,0.02259 0.1419643,0.0367 0.1648075,0.03135 0.022844,-0.0054 0.1805027,-0.386271 0.350353,-0.846482 z m 17.2362916,0.605132 c 1.722281,-0.546442 3.025562,-1.234864 3.79963,-2.007052 0.515238,-0.513985 0.662888,-0.821933 0.662888,-1.382554 0,-0.361549 -0.01942,-0.458682 -0.141354,-0.707008 C 28.500794,11.998992 27.524755,11.248 26.121874,10.621145 25.599753,10.387843 24.16368,9.8835758 23.8156,9.8113121 L 23.661474,9.7793146 23.526376,10.18869 c -0.201886,0.611751 -0.611923,1.647192 -0.985926,2.489696 l -0.332478,0.748962 0.37714,0.848228 c 0.34775,0.782125 0.963278,2.362392 1.041378,2.67357 0.03918,0.156093 0.0063,0.160655 0.910295,-0.126173 z M 9.2964983,11.818478 c 0.1087932,-0.239817 0.9430167,-1.646802 1.3156387,-2.2189319 0.356707,-0.5476944 0.359591,-0.5547314 0.2273,-0.5546052 -0.237776,2.466e-4 -2.3271476,0.34268 -2.5614988,0.4198367 -0.068011,0.022391 0.1221793,0.6070324 0.5275677,1.6217384 0.2959725,0.740831 0.353819,0.867563 0.395997,0.867563 0.018414,0 0.061162,-0.06102 0.094995,-0.135601 z M 21.820641,11.192232 c 0.311722,-0.779734 0.595832,-1.5801721 0.595832,-1.678667 0,-0.060992 -0.481781,-0.1614367 -1.660496,-0.3461884 -1.191065,-0.1866871 -1.132538,-0.2607915 -0.539507,0.6830932 0.278402,0.4431112 0.66982,1.0976962 0.869818,1.4546332 0.199999,0.356937 0.378517,0.648976 0.396708,0.648976 0.01819,0 0.170131,-0.342831 0.337645,-0.761847 z M 8.3701392,8.2102474 C 9.2413209,8.0310776 11.439034,7.7147516 11.820121,7.7136776 11.863667,7.713579 12.089228,7.4638245 12.32137,7.1587214 12.766472,6.5737237 13.533774,5.6562148 14.102318,5.0291345 14.505578,4.5843565 14.551159,4.6932196 13.643809,3.9340585 12.48167,2.9617196 11.190153,2.1987943 10.261659,1.9361527 9.9741694,1.854831 9.7334483,1.8241499 9.3740864,1.8230272 8.9421019,1.8216776 8.8464294,1.8376567 8.6021261,1.9519599 8.0800154,2.1962412 7.7389336,2.6818906 7.5166701,3.4974843 7.4228379,3.8418028 7.4087427,4.0236264 7.4058192,4.9274624 c -0.00253,0.7826093 0.018563,1.1679687 0.086375,1.5779069 0.1273257,0.7697114 0.3557312,1.7998001 0.3990773,1.7998001 0.00953,0 0.2250199,-0.042715 0.4788677,-0.094922 z M 22.857341,8.0744394 C 23.544082,5.3471411 23.409013,3.1056737 22.507087,2.262028 22.129779,1.9091004 21.893272,1.8227212 21.307007,1.8237241 c -0.772844,0.00132 -1.622794,0.2991984 -2.680187,0.9393082 -0.743848,0.4503003 -2.374046,1.7532139 -2.374046,1.8974246 0,0.025035 0.180317,0.2395834 0.400704,0.4767742 0.492789,0.5303633 1.173551,1.3429997 1.714097,2.0461451 0.230271,0.299538 0.443396,0.5301752 0.490036,0.5303014 0.382907,0.00104 3.095509,0.4007563 3.657481,0.5389553 0.274806,0.06758 0.281201,0.06425 0.342249,-0.1781935 z m -5.766313,-0.514224 c 1.5e-5,-0.048626 -0.999041,-1.2306343 -1.394309,-1.649641 L 15.332451,5.52443 15.004145,5.8724516 c -0.329614,0.3494088 -1.197308,1.3639842 -1.363623,1.5944547 l -0.08896,0.123274 h 1.769728 c 0.97335,0 1.769732,-0.013484 1.769737,-0.029965 z"
       id="path2204"
       transform="matrix(0.76723478,0,0,0.79768537,-11.764824,-10.710241)" />
    <path
       style="opacity:0.99;fill:#61dafb;fill-opacity:1;stroke:#01ffff;stroke-width:0.0186367;stroke-dasharray:0.0186367, 0.0186367;paint-order:fill markers stroke"
       d="M 8.5604782,26.12651 C 7.6675984,25.890946 6.9115014,25.195081 6.5444502,24.271083 6.0221689,22.956316 6.0264519,21.092896 6.5570956,18.769758 6.6207642,18.49102 6.6551181,18.252 6.6334387,18.238601 6.6117587,18.225202 6.2321109,18.094583 5.7897767,17.948336 3.3078035,17.127734 1.7216193,16.16279 0.93103486,14.992554 0.57147738,14.460332 0.4628867,14.148274 0.43557557,13.568751 0.41582241,13.149603 0.42940183,13.034864 0.54119942,12.67629 1.0197326,11.141468 2.8761305,9.8253929 5.9293914,8.856386 6.3178608,8.7330977 6.5889817,8.6205288 6.6063293,8.5753213 6.6222449,8.533846 6.5694945,8.1636789 6.4891056,7.7527279 6.1018843,5.7732333 6.0501181,4.3751327 6.3218756,3.2362171 6.3652423,3.0544708 6.5184813,2.6610014 6.6624066,2.3618408 6.8717347,1.9267363 6.9878499,1.7535214 7.2427795,1.4960711 7.589524,1.1458976 8.0502743,0.87375208 8.5319491,0.73461365 8.9742808,0.60683999 10.060956,0.65417105 10.635894,0.82625278 11.88332,1.1996131 13.321935,2.0708046 14.794999,3.3449089 c 0.269475,0.233078 0.513557,0.4236453 0.542406,0.423483 0.02885,-1.624e-4 0.285439,-0.2019457 0.570202,-0.4484073 1.390624,-1.2035818 2.715277,-2.0173655 3.978076,-2.44388056 0.483627,-0.16334655 0.596316,-0.18241433 1.199964,-0.20304316 0.781969,-0.0267227 1.0737,0.0222611 1.581268,0.26550634 0.492046,0.23580678 1.027355,0.77737508 1.313608,1.32896758 0.375163,0.722918 0.507222,1.4417424 0.506549,2.7572532 -4.94e-4,0.9512345 -0.04609,1.3786244 -0.271403,2.5438642 -0.09459,0.4891674 -0.171979,0.9320405 -0.171979,0.9841622 0,0.073111 0.06479,0.1132637 0.28353,0.1757079 0.928043,0.2649335 2.172327,0.7495955 2.975581,1.1590209 1.175012,0.5989138 2.231276,1.5130558 2.603341,2.2530568 0.278438,0.553785 0.366439,0.928909 0.337977,1.440696 -0.03865,0.694937 -0.338754,1.321785 -0.911915,1.904764 -0.712084,0.724284 -1.258881,1.102674 -2.331715,1.613576 -0.851858,0.405669 -1.648167,0.718786 -2.382998,0.937018 -0.321147,0.09538 -0.590808,0.180382 -0.599247,0.188904 -0.0084,0.0085 0.06144,0.392712 0.155285,0.853757 0.237328,1.165957 0.314008,1.840739 0.313573,2.759463 -6.27e-4,1.325957 -0.110424,1.918854 -0.506189,2.733412 -0.149863,0.308446 -0.290068,0.503791 -0.549951,0.766242 -0.568626,0.574241 -1.091741,0.811313 -1.882592,0.853176 -0.8955,0.0474 -1.602941,-0.115687 -2.624677,-0.605083 -1.039933,-0.498112 -1.85819,-1.058281 -3.084799,-2.111819 -0.241195,-0.207163 -0.4646,-0.37666 -0.496457,-0.37666 -0.03186,0 -0.345196,0.238536 -0.696311,0.530079 -1.801652,1.495976 -3.15332,2.249581 -4.495433,2.50637 -0.4639956,0.08878 -1.2381858,0.08489 -1.5902148,-0.008 z m 1.4201187,-1.12797 c 0.9439271,-0.198562 2.1768821,-0.863142 3.3946501,-1.829765 0.595932,-0.473031 1.053072,-0.902209 1.053072,-0.988658 0,-0.03556 -0.128711,-0.204149 -0.286024,-0.374643 -0.491774,-0.532976 -0.951298,-1.072795 -1.556739,-1.828757 -0.321475,-0.401397 -0.63193,-0.760051 -0.6899,-0.797008 -0.05797,-0.03696 -0.482618,-0.113691 -0.943663,-0.170523 -0.461044,-0.05683 -1.3223507,-0.182605 -1.9140145,-0.279497 -0.5916634,-0.09689 -1.1043569,-0.165191 -1.1393193,-0.151775 -0.1389495,0.05332 -0.4417499,1.620724 -0.5163474,2.672798 -0.079633,1.123099 0.063569,2.239554 0.3630655,2.830581 0.2132448,0.420818 0.6697727,0.808338 1.1109584,0.943026 0.2063222,0.06299 0.762952,0.05022 1.1242612,-0.02578 z M 22.084868,24.90927 c 0.35852,-0.164136 0.642434,-0.464266 0.846331,-0.894669 0.305979,-0.645889 0.348341,-0.908326 0.346932,-2.149292 -0.0013,-1.157124 -0.05438,-1.61023 -0.324212,-2.768059 -0.143856,-0.61728 -0.10608,-0.595948 -0.808649,-0.456661 -0.567473,0.112503 -1.128751,0.198612 -2.687372,0.412284 -0.627294,0.086 -0.727086,0.1124 -0.813609,0.21528 -0.05424,0.06449 -0.287228,0.358258 -0.51775,0.652808 -0.44255,0.565468 -1.338884,1.611651 -1.719509,2.006976 -0.186634,0.193842 -0.217082,0.250214 -0.173114,0.320512 0.06464,0.103347 0.898264,0.811798 1.374872,1.168427 1.163498,0.870604 2.127915,1.370268 3.057195,1.58393 0.44991,0.103445 1.082071,0.06266 1.418885,-0.09154 z m -5.676845,-4.743416 c 0.375658,-0.432976 0.683014,-0.815741 0.683014,-0.850591 0,-0.05044 -0.362117,-0.06336 -1.775145,-0.06336 -0.97633,0 -1.774629,0.01664 -1.774,0.03698 0.0017,0.0563 0.581979,0.751911 1.220353,1.463017 l 0.571921,0.637081 0.195421,-0.21795 c 0.107481,-0.119872 0.502777,-0.572202 0.878436,-1.005177 z m 1.734002,-2.269967 C 18.572977,17.407443 19.826043,15.375433 20.53763,14.0111 L 20.840682,13.430055 20.5459,12.852323 C 20.383771,12.534571 20.15874,12.119266 20.045833,11.929424 19.932926,11.739582 19.695099,11.340175 19.51733,11.041852 19.33956,10.743529 18.951483,10.127589 18.654937,9.6730978 18.24507,9.0449281 18.084534,8.8379787 17.985549,8.8101799 c -0.173445,-0.048711 -5.121625,-0.047236 -5.296295,0.00158 -0.104093,0.02909 -0.239189,0.1930032 -0.56897,0.6903343 -0.782,1.1793058 -1.989541,3.2333868 -2.2023049,3.7462218 l -0.076657,0.18477 0.3607889,0.702802 c 0.525115,1.022903 1.801176,3.107017 2.262525,3.695247 0.08371,0.106733 0.197881,0.190997 0.276507,0.204075 0.07366,0.01225 1.289624,0.0192 2.702145,0.01544 l 2.56822,-0.0068 0.130517,-0.147928 z m -7.165377,-0.07659 c 0,-0.02856 -0.09686,-0.200531 -0.215244,-0.382149 -0.118385,-0.18162 -0.439664,-0.707435 -0.713954,-1.16848 -0.8046144,-1.352449 -0.8433702,-1.412736 -0.8897582,-1.384066 -0.081248,0.05021 -0.8039579,1.925346 -0.8909257,2.311582 -0.03809,0.169161 -0.0312,0.192091 0.069178,0.230256 0.1070156,0.04069 2.0379819,0.371577 2.3941559,0.410262 0.09492,0.01031 0.189226,0.0223 0.209566,0.02664 0.02034,0.0043 0.03698,-0.01548 0.03698,-0.04404 z m 10.157776,-0.165554 c 1.026814,-0.175161 1.235846,-0.226329 1.268112,-0.310413 0.01572,-0.04097 -0.0098,-0.199673 -0.05674,-0.35268 -0.116289,-0.379156 -0.830693,-2.176614 -0.865102,-2.176614 -0.01521,0 -0.102622,0.138684 -0.194255,0.308185 -0.296179,0.54787 -0.697753,1.229158 -1.144861,1.942309 -0.240423,0.383484 -0.437133,0.714032 -0.437133,0.734552 0,0.05562 0.623221,-0.0077 1.429978,-0.145339 z M 7.45229,15.898846 C 7.6983567,15.26152 8.0335672,14.440515 8.1972026,14.074391 L 8.4947214,13.408712 8.3015831,12.98958 C 7.9811862,12.294284 7.6276132,11.431036 7.3240249,10.602876 7.1659261,10.171598 7.018875,9.802213 6.9972444,9.7820202 6.9016459,9.6927748 5.1028116,10.327581 4.1965794,10.770371 c -1.1290561,0.551663 -1.7820818,1.036913 -2.2171251,1.6475 -0.5489662,0.770479 -0.4849969,1.481308 0.2026619,2.251981 0.591107,0.662466 1.4364242,1.198911 2.7640382,1.754081 0.5894531,0.246493 1.8412525,0.65786 1.9612873,0.644519 0.079121,-0.0088 0.1816171,-0.228816 0.5448483,-1.169606 z m 17.109656,0.942306 c 1.763309,-0.571998 3.001059,-1.233171 3.80516,-2.032615 0.513671,-0.510697 0.632197,-0.768517 0.632197,-1.37517 0,-0.415728 -0.01589,-0.500806 -0.141225,-0.756053 -0.353581,-0.720086 -1.543657,-1.598109 -2.940624,-2.169555 -0.920899,-0.376705 -2.247247,-0.800754 -2.286262,-0.7309444 -0.0099,0.017763 -0.07952,0.2209064 -0.15465,0.4514284 -0.171666,0.526731 -0.614838,1.644668 -1.001703,2.526879 l -0.296938,0.677141 0.393136,0.900452 c 0.306491,0.701996 0.86874,2.13512 1.056653,2.693314 0.02968,0.08818 0.19076,0.0563 0.934256,-0.184877 z M 9.3921308,11.703909 C 9.5742676,11.363141 10.018827,10.614904 10.497726,9.8430857 10.738546,9.4549669 10.923791,9.1066923 10.909381,9.0691416 10.890796,9.0207072 10.828701,9.008439 10.695695,9.0269227 10.22909,9.0917668 8.7076323,9.34169 8.4742683,9.3918265 c -0.2463976,0.052937 -0.2573039,0.061901 -0.227689,0.1871333 0.052987,0.2240618 0.3418204,1.0436172 0.5572511,1.5811782 0.3603219,0.899106 0.3857938,0.922649 0.5883004,0.543771 z M 21.690683,11.580996 c 0.314721,-0.756633 0.72579,-1.894203 0.72579,-2.008511 0,-0.1489929 -0.05991,-0.1661082 -1.328386,-0.3794807 -1.023001,-0.1720806 -1.319239,-0.1786866 -1.293257,-0.028838 0.009,0.052084 0.189465,0.3738288 0.400966,0.714989 0.211501,0.3411597 0.577567,0.9488377 0.81348,1.3503957 0.235913,0.401557 0.45374,0.721835 0.484062,0.711727 0.03032,-0.01011 0.119127,-0.172234 0.197345,-0.360282 z M 9.423396,8.0599429 C 9.911561,7.9815259 10.621619,7.8806039 11.001303,7.835672 11.380987,7.790741 11.738329,7.74525 11.795397,7.734581 11.894057,7.716136 12.082261,7.5077347 12.665902,6.7706584 13.024416,6.3178928 13.594036,5.6429515 14.015347,5.1717034 14.35035,4.7969938 14.398899,4.7179513 14.384852,4.5701199 14.376106,4.4780676 13.204447,3.5262535 12.556005,3.0844291 11.859571,2.6099045 11.097544,2.2023242 10.508207,1.9891369 10.096547,1.8402226 10.018016,1.8283246 9.423396,1.8247797 8.8029729,1.821081 8.7739665,1.8256145 8.5208555,1.9658336 8.0674666,2.217003 7.7779582,2.6131838 7.5457366,3.3002459 7.4228019,3.6639656 7.4105879,3.7724636 7.3890825,4.6917934 c -0.013727,0.586793 -5.473e-4,1.1901858 0.032025,1.4663861 0.060372,0.511905 0.2574977,1.5279538 0.3745774,1.9306933 L 7.8694408,8.342584 8.2026321,8.2725516 C 8.3858872,8.2340339 8.9352311,8.1383599 9.423396,8.0599429 Z m 13.431709,0.1342799 c 0.07641,-0.203231 0.343963,-1.6324024 0.402891,-2.1521043 0.08711,-0.7682151 0.03607,-2.0956203 -0.09964,-2.5912713 C 23.009928,2.9087317 22.827575,2.557962 22.549327,2.2793395 22.225944,1.9555212 21.985585,1.8427128 21.548597,1.8096634 c -1.199522,-0.09072 -2.598393,0.5490397 -4.442643,2.0317968 -0.35792,0.2877634 -0.708473,0.591791 -0.779008,0.6756168 -0.127059,0.151001 -0.127367,0.1533756 -0.03338,0.2567432 0.563529,0.6197514 1.156557,1.3143131 1.62578,1.9041327 0.781381,0.9822061 0.882914,1.084811 1.073473,1.084811 0.288597,0 2.945397,0.3860847 3.374341,0.4903572 0.316359,0.076904 0.442612,0.061664 0.487942,-0.058898 z m -5.7496,-0.6102915 c 0.03748,-0.037482 -0.562458,-0.7767942 -1.25155,-1.542296 L 15.347735,5.479282 14.974319,5.8690517 c -0.427461,0.4461818 -1.433572,1.6423304 -1.433572,1.70435 0,0.047344 3.517553,0.057734 3.564758,0.01053 z"
       id="path2206"
       transform="matrix(0.76723478,0,0,0.79768537,-11.764824,-10.710241)" />
  </g>
  <g
     style="fill:#61dafb;fill-opacity:1;fill-rule:evenodd"
     id="g2202"
     transform="translate(-53.554307,-33.35631)">
    <text
       xml:space="preserve"
       style="font-style:normal;font-weight:normal;font-size:9.01613px;line-height:1.25;font-family:sans-serif;fill:#61dafb;fill-opacity:1;stroke:none;stroke-width:0.751344"
       x="46.644726"
       y="52.142765"
       id="text2719"
       transform="scale(0.93272792,1.072124)"><tspan
         sodipodi:role="line"
         id="tspan2717"
         x="46.644726"
         y="52.142765"
         style="fill:#61dafb;fill-opacity:1;stroke-width:0.751344">Native</tspan></text>
  </g>
</svg>
